<svg width="32" height="28" viewBox="0 0 32 28" fill="none" xmlns="http://www.w3.org/2000/svg">
<path d="M16.0012 7V28M16.0012 7C16.0012 5.4087 15.369 3.88258 14.2437 2.75736C13.1184 1.63214 11.5921 1 10.0007 1H2.50012C2.10226 1 1.7207 1.15804 1.43937 1.43934C1.15805 1.72064 1 2.10218 1 2.5V22C1 22.3978 1.15805 22.7794 1.43937 23.0607C1.7207 23.342 2.10226 23.5 2.50012 23.5H11.5008C12.6944 23.5 13.8391 23.9741 14.6831 24.818C15.5271 25.6619 16.0012 26.8065 16.0012 28M16.0012 7C16.0012 5.4087 16.6334 3.88258 17.7587 2.75736C18.884 1.63214 20.4103 1 22.0017 1H29.5023C29.9001 1 30.2817 1.15804 30.563 1.43934C30.8444 1.72064 31.0024 2.10218 31.0024 2.5V22C31.0024 22.3978 30.8444 22.7794 30.563 23.0607C30.2817 23.342 29.9001 23.5 29.5023 23.5H20.5016C19.308 23.5 18.1633 23.9741 17.3193 24.818C16.4753 25.6619 16.0012 26.8065 16.0012 28" stroke-width="2" stroke-linecap="round" stroke="#C9A227"/>
</svg>
